<svg xmlns="http://www.w3.org/2000/svg" xmlns:xlink="http://www.w3.org/1999/xlink" style="stroke-linejoin:round;stroke:#000;fill:none" width="2000" height="1176" enable_background="new 0 0 2000 1176" pretty_print="False" version="1.1" viewBox="0 0 2000 1176"><defs><style type="text/css"><![CDATA[path { fill-rule: evenodd; }]]></style></defs><metadata><views><view h="1176.22" padding="0" w="2000"><proj id="robinson" flip="auto" lon0="-.075"/><bbox x="-3.28" y="-860.54" h="1.96" w="3.34"/></view></views></metadata><g id="mylayer"><circle cx="1387.598" cy="492.833" r="2" data-name="Aldgate"/><circle cx="1410.252" cy="483.291" r="2" data-name="Aldgate East"/><circle cx="1078.156" cy="515.58" r="2" data-name="Aldwych"/><circle cx="1154.973" cy="316.845" r="2" data-name="Angel"/><circle cx="934.15" cy=".193" r="2" data-name="Archway"/><circle cx="1154.673" cy="66.871" r="2" data-name="Arsenal"/><circle cx="762.738" cy="413.703" r="2" data-name="Baker Street"/><circle cx="790.247" cy="1174.22" r="2" data-name="Balham"/><circle cx="1283.843" cy="501.122" r="2" data-name="Bank (N)"/><circle cx="1271.824" cy="520.592" r="2" data-name="Bank (S)"/><circle cx="1215.626" cy="435.196" r="2" data-name="Barbican"/><circle cx="334.984" cy="723.882" r="2" data-name="Barons Court"/><circle cx="530.519" cy="510.375" r="2" data-name="Bayswater"/><circle cx="711.468" cy="146.08" r="2" data-name="Belsize Park"/><circle cx="1471.906" cy="651.007" r="2" data-name="Bermondsey"/><circle cx="1540.489" cy="369.08" r="2" data-name="Bethnal Green"/><circle cx="1171.645" cy="519.049" r="2" data-name="Blackfriars"/><circle cx="822.101" cy="495.242" r="2" data-name="Bond Street"/><circle cx="1244.556" cy="622.089" r="2" data-name="Borough"/><circle cx="1766.969" cy="371.393" r="2" data-name="Bow Rd"/><circle cx="1870.708" cy="392.693" r="2" data-name="Bromley-By-Bow"/><circle cx="1057.958" cy="160.824" r="2" data-name="Caledonian Rd"/><circle cx="875.054" cy="252.565" r="2" data-name="Camden Town"/><circle cx="1581.066" cy="651.489" r="2" data-name="Canada Water"/><circle cx="790.211" cy="206.405" r="2" data-name="Chalk Farm"/><circle cx="1110.652" cy="454.954" r="2" data-name="Chancery Lane"/><circle cx="1010.332" cy="548.737" r="2" data-name="Charing Cross (E)"/><circle cx="988.435" cy="556.448" r="2" data-name="Charing Cross (W)"/><circle cx="903.395" cy="1001.725" r="2" data-name="Clapham Common"/><circle cx="973.222" cy="968.944" r="2" data-name="Clapham North"/><circle cx="834.127" cy="1086.476" r="2" data-name="Clapham South"/><circle cx="1013.782" cy="507.869" r="2" data-name="Covent Garden"/><circle cx="146.684" cy="126.711" r="2" data-name="Dollis Hill"/><circle cx="488.565" cy="708.266" r="2" data-name="Earls Court (N)"/><circle cx="472.203" cy="723.207" r="2" data-name="Earls Court (S)"/><circle cx="78.177" cy="469.122" r="2" data-name="East Acton"/><circle cx="355.056" cy="1028.528" r="2" data-name="East Putney"/><circle cx="684.43" cy="439.051" r="2" data-name="Edgeware Road (S)"/><circle cx="666.649" cy="435.196" r="2" data-name="Edgware Road (N)"/><circle cx="1195.041" cy="671.153" r="2" data-name="Elephant &amp;amp; Castle (N)"/><circle cx="1199.52" cy="682.142" r="2" data-name="Elephant &amp;amp; Castle (S)"/><circle cx="1027.955" cy="564.833" r="2" data-name="Embankment"/><circle cx="955.903" cy="360.599" r="2" data-name="Euston"/><circle cx="929.738" cy="386.043" r="2" data-name="Euston Square"/><circle cx="1162.042" cy="436.738" r="2" data-name="Farringdon"/><circle cx="588.411" cy="177.399" r="2" data-name="Finchley Rd"/><circle cx="1148.333" cy="0" r="2" data-name="Finsbury Park"/><circle cx="477.791" cy="822.211" r="2" data-name="Fulham Broadway"/><circle cx="566.666" cy="681.66" r="2" data-name="Gloucester Road"/><circle cx="235.093" cy="610.329" r="2" data-name="Goldhawk Rd"/><circle cx="936.616" cy="434.811" r="2" data-name="Goodge Street"/><circle cx="865.352" cy="401.945" r="2" data-name="Great Portland Street"/><circle cx="880.341" cy="564.062" r="2" data-name="Green Park"/><circle cx="249.881" cy="693.71" r="2" data-name="Hammersmith"/><circle cx="604.618" cy="85.18" r="2" data-name="Hampstead"/><circle cx=".851" cy="287.355" r="2" data-name="Harlesdon"/><circle cx="497.177" cy="621.607" r="2" data-name="High St Kensington"/><circle cx="1173.063" cy="187.517" r="2" data-name="Highbury &amp;amp; Islington"/><circle cx="1047.409" cy="463.436" r="2" data-name="Holborn"/><circle cx="391.816" cy="562.327" r="2" data-name="Holland Park"/><circle cx="1098.712" cy="123.242" r="2" data-name="Holloway Rd"/><circle cx="790.987" cy="608.305" r="2" data-name="Hyde Park Corner"/><circle cx="1158.508" cy="743.837" r="2" data-name="Kennington"/><circle cx="254.761" cy="337.373" r="2" data-name="Kensal Green"/><circle cx="361.375" cy="653.32" r="2" data-name="Kensington"/><circle cx="892.697" cy="145.598" r="2" data-name="Kentish Town"/><circle cx="405.809" cy="178.459" r="2" data-name="Kilburn"/><circle cx="485.699" cy="288.704" r="2" data-name="Kilburn Park"/><circle cx="1019.836" cy="336.313" r="2" data-name="King&amp;apos;s Cross"/><circle cx="738.833" cy="617.269" r="2" data-name="Knightsbridge"/><circle cx="360.165" cy="464.111" r="2" data-name="Ladbroke Grove"/><circle cx="1109.693" cy="641.56" r="2" data-name="Lambeth North"/><circle cx="624.839" cy="516.833" r="2" data-name="Lancaster Gate"/><circle cx="300.907" cy="503.05" r="2" data-name="Latimer Rd"/><circle cx="986.56" cy="523.483" r="2" data-name="Leicester Square"/><circle cx="1334.103" cy="462.279" r="2" data-name="Liverpool Street"/><circle cx="1293.912" cy="579.677" r="2" data-name="London Bridge"/><circle cx="1239.905" cy="512.206" r="2" data-name="Mansion House"/><circle cx="756.427" cy="499.001" r="2" data-name="Marble Arch"/><circle cx="719.187" cy="415.245" r="2" data-name="Marylebone"/><circle cx="1698.945" cy="391.247" r="2" data-name="Mile End"/><circle cx="1301.465" cy="524.254" r="2" data-name="Monument"/><circle cx="1281.663" cy="456.496" r="2" data-name="Moorgate"/><circle cx="904.804" cy="300.462" r="2" data-name="Mornington Cres"/><circle cx="61.221" cy="112.161" r="2" data-name="Neasden"/><circle cx="1713.903" cy="862.026" r="2" data-name="New Cross"/><circle cx="1655.208" cy="865.497" r="2" data-name="New Cross Gate"/><circle cx="1994.749" cy="652.356" r="2" data-name="North Greenwich"/><circle cx="1294.013" cy="383.826" r="2" data-name="Old Street"/><circle cx="1099.777" cy="806.497" r="2" data-name="Oval"/><circle cx="883.751" cy="485.7" r="2" data-name="Oxford Circus"/><circle cx="624.574" cy="478.472" r="2" data-name="Paddington (N)"/><circle cx="626.471" cy="482.038" r="2" data-name="Paddington (S)"/><circle cx="430.523" cy="869.45" r="2" data-name="Parsons Green"/><circle cx="939.725" cy="539.869" r="2" data-name="Piccadilly Circus"/><circle cx="944.892" cy="735.257" r="2" data-name="Pimlico"/><circle cx="371.365" cy="936.743" r="2" data-name="Putney Bridge"/><circle cx="403.908" cy="305.28" r="2" data-name="Queens Park"/><circle cx="533.462" cy="529.748" r="2" data-name="Queensway"/><circle cx="164.672" cy="687.155" r="2" data-name="Ravenscourt Park"/><circle cx="843.004" cy="405.8" r="2" data-name="Regents Park"/><circle cx="1562.071" cy="623.342" r="2" data-name="Rotherhithe"/><circle cx="526.639" cy="444.834" r="2" data-name="Royal Oak"/><circle cx="1012.714" cy="410.041" r="2" data-name="Russell Square"/><circle cx="1525.543" cy="518.375" r="2" data-name="Shadwell"/><circle cx="301.636" cy="586.617" r="2" data-name="Shepherd&amp;apos;s Bush"/><circle cx="238.026" cy="576.978" r="2" data-name="Shepherd&amp;apos;s Bush"/><circle cx="1419.403" cy="410.908" r="2" data-name="Shoreditch"/><circle cx="771.134" cy="705.374" r="2" data-name="Sloane Square"/><circle cx="639.03" cy="687.637" r="2" data-name="South Kensington"/><circle cx="390.944" cy="1155.706" r="2" data-name="Southfields"/><circle cx="944.21" cy="635.68" r="2" data-name="St James&amp;apos;s Park"/><circle cx="633.959" cy="295.932" r="2" data-name="St John&amp;apos;s Wood"/><circle cx="1009.575" cy="337.469" r="2" data-name="St Pancras"/><circle cx="1220.231" cy="490.423" r="2" data-name="St Paul&amp;apos;s"/><circle cx="93.228" cy="677.804" r="2" data-name="Stamford Brook"/><circle cx="1602.719" cy="419.39" r="2" data-name="Stepney Green"/><circle cx="1023.685" cy="898.179" r="2" data-name="Stockwell"/><circle cx="1943.975" cy="230.015" r="2" data-name="Stratford"/><circle cx="1597.169" cy="697.18" r="2" data-name="Surrey Quays"/><circle cx="625.685" cy="212.669" r="2" data-name="Swiss Cottage"/><circle cx="1096.012" cy="524.351" r="2" data-name="Temple"/><circle cx="965.086" cy="475.773" r="2" data-name="Tottenham Court Road"/><circle cx="1383.551" cy="533.604" r="2" data-name="Tower Hill"/><circle cx="912.047" cy="84.698" r="2" data-name="Tufnell Park"/><circle cx="20.856" cy="679.636" r="2" data-name="Turnham Green"/><circle cx="1008.955" cy="766.49" r="2" data-name="Vauxhall"/><circle cx="860.568" cy="665.37" r="2" data-name="Victoria"/><circle cx="1536.465" cy="588.931" r="2" data-name="Wapping"/><circle cx="910.349" cy="397.512" r="2" data-name="Warren Street"/><circle cx="564.989" cy="405.029" r="2" data-name="Warwick Ave"/><circle cx="1087.681" cy="592.883" r="2" data-name="Waterloo"/><circle cx="469.885" cy="755.694" r="2" data-name="West Brompton"/><circle cx="1999.149" cy="357.708" r="2" data-name="West Ham"/><circle cx="510.898" cy="182.12" r="2" data-name="West Hampstead"/><circle cx="391.319" cy="721.568" r="2" data-name="West Kensington"/><circle cx="430.059" cy="426.522" r="2" data-name="Westbourne Park"/><circle cx="1010.812" cy="619.197" r="2" data-name="Westminster"/><circle cx="253.085" cy="512.784" r="2" data-name="White City"/><circle cx="1496.609" cy="446.473" r="2" data-name="Whitechapel"/><circle cx="277.871" cy="157.837" r="2" data-name="Willesden Green"/><circle cx="97.85" cy="320.122" r="2" data-name="Willesden Junction"/></g><g id="mylayer-label" fill="#000" stroke="none" font-family="Arial" font-size="12"><text y="486.833" text-anchor="middle"><tspan x="1387.598" dy="0"><![CDATA[Aldgate]]></tspan></text><text y="477.291" text-anchor="middle"><tspan x="1410.252" dy="0"><![CDATA[Aldgate East]]></tspan></text><text y="509.58" text-anchor="middle"><tspan x="1078.156" dy="0"><![CDATA[Aldwych]]></tspan></text><text y="310.845" text-anchor="middle"><tspan x="1154.973" dy="0"><![CDATA[Angel]]></tspan></text><text y="-5.807" text-anchor="middle"><tspan x="934.15" dy="0"><![CDATA[Archway]]></tspan></text><text y="60.871" text-anchor="middle"><tspan x="1154.673" dy="0"><![CDATA[Arsenal]]></tspan></text><text y="407.703" text-anchor="middle"><tspan x="762.738" dy="0"><![CDATA[Baker Street]]></tspan></text><text y="1168.22" text-anchor="middle"><tspan x="790.247" dy="0"><![CDATA[Balham]]></tspan></text><text y="495.122" text-anchor="middle"><tspan x="1283.843" dy="0"><![CDATA[Bank (N)]]></tspan></text><text y="514.592" text-anchor="middle"><tspan x="1271.824" dy="0"><![CDATA[Bank (S)]]></tspan></text><text y="429.196" text-anchor="middle"><tspan x="1215.626" dy="0"><![CDATA[Barbican]]></tspan></text><text y="717.882" text-anchor="middle"><tspan x="334.984" dy="0"><![CDATA[Barons Court]]></tspan></text><text y="504.375" text-anchor="middle"><tspan x="530.519" dy="0"><![CDATA[Bayswater]]></tspan></text><text y="140.08" text-anchor="middle"><tspan x="711.468" dy="0"><![CDATA[Belsize Park]]></tspan></text><text y="645.007" text-anchor="middle"><tspan x="1471.906" dy="0"><![CDATA[Bermondsey]]></tspan></text><text y="363.08" text-anchor="middle"><tspan x="1540.489" dy="0"><![CDATA[Bethnal Green]]></tspan></text><text y="513.049" text-anchor="middle"><tspan x="1171.645" dy="0"><![CDATA[Blackfriars]]></tspan></text><text y="489.242" text-anchor="middle"><tspan x="822.101" dy="0"><![CDATA[Bond Street]]></tspan></text><text y="616.089" text-anchor="middle"><tspan x="1244.556" dy="0"><![CDATA[Borough]]></tspan></text><text y="365.393" text-anchor="middle"><tspan x="1766.969" dy="0"><![CDATA[Bow Rd]]></tspan></text><text y="386.693" text-anchor="middle"><tspan x="1870.708" dy="0"><![CDATA[Bromley-By-Bow]]></tspan></text><text y="154.824" text-anchor="middle"><tspan x="1057.958" dy="0"><![CDATA[Caledonian Rd]]></tspan></text><text y="246.565" text-anchor="middle"><tspan x="875.054" dy="0"><![CDATA[Camden Town]]></tspan></text><text y="645.489" text-anchor="middle"><tspan x="1581.066" dy="0"><![CDATA[Canada Water]]></tspan></text><text y="200.405" text-anchor="middle"><tspan x="790.211" dy="0"><![CDATA[Chalk Farm]]></tspan></text><text y="448.954" text-anchor="middle"><tspan x="1110.652" dy="0"><![CDATA[Chancery Lane]]></tspan></text><text y="542.737" text-anchor="middle"><tspan x="1010.332" dy="0"><![CDATA[Charing Cross (E)]]></tspan></text><text y="550.448" text-anchor="middle"><tspan x="988.435" dy="0"><![CDATA[Charing Cross (W)]]></tspan></text><text y="995.725" text-anchor="middle"><tspan x="903.395" dy="0"><![CDATA[Clapham Common]]></tspan></text><text y="962.944" text-anchor="middle"><tspan x="973.222" dy="0"><![CDATA[Clapham North]]></tspan></text><text y="1080.476" text-anchor="middle"><tspan x="834.127" dy="0"><![CDATA[Clapham South]]></tspan></text><text y="501.869" text-anchor="middle"><tspan x="1013.782" dy="0"><![CDATA[Covent Garden]]></tspan></text><text y="120.711" text-anchor="middle"><tspan x="146.684" dy="0"><![CDATA[Dollis Hill]]></tspan></text><text y="702.266" text-anchor="middle"><tspan x="488.565" dy="0"><![CDATA[Earls Court (N)]]></tspan></text><text y="717.207" text-anchor="middle"><tspan x="472.203" dy="0"><![CDATA[Earls Court (S)]]></tspan></text><text y="463.122" text-anchor="middle"><tspan x="78.177" dy="0"><![CDATA[East Acton]]></tspan></text><text y="1022.528" text-anchor="middle"><tspan x="355.056" dy="0"><![CDATA[East Putney]]></tspan></text><text y="433.051" text-anchor="middle"><tspan x="684.43" dy="0"><![CDATA[Edgeware Road (S)]]></tspan></text><text y="429.196" text-anchor="middle"><tspan x="666.649" dy="0"><![CDATA[Edgware Road (N)]]></tspan></text><text y="665.153" text-anchor="middle"><tspan x="1195.041" dy="0"><![CDATA[Elephant &amp; Castle (N)]]></tspan></text><text y="676.142" text-anchor="middle"><tspan x="1199.52" dy="0"><![CDATA[Elephant &amp; Castle (S)]]></tspan></text><text y="558.833" text-anchor="middle"><tspan x="1027.955" dy="0"><![CDATA[Embankment]]></tspan></text><text y="354.599" text-anchor="middle"><tspan x="955.903" dy="0"><![CDATA[Euston]]></tspan></text><text y="380.043" text-anchor="middle"><tspan x="929.738" dy="0"><![CDATA[Euston Square]]></tspan></text><text y="430.738" text-anchor="middle"><tspan x="1162.042" dy="0"><![CDATA[Farringdon]]></tspan></text><text y="171.399" text-anchor="middle"><tspan x="588.411" dy="0"><![CDATA[Finchley Rd]]></tspan></text><text y="-6" text-anchor="middle"><tspan x="1148.333" dy="0"><![CDATA[Finsbury Park]]></tspan></text><text y="816.211" text-anchor="middle"><tspan x="477.791" dy="0"><![CDATA[Fulham Broadway]]></tspan></text><text y="675.66" text-anchor="middle"><tspan x="566.666" dy="0"><![CDATA[Gloucester Road]]></tspan></text><text y="604.329" text-anchor="middle"><tspan x="235.093" dy="0"><![CDATA[Goldhawk Rd]]></tspan></text><text y="428.811" text-anchor="middle"><tspan x="936.616" dy="0"><![CDATA[Goodge Street]]></tspan></text><text y="395.945" text-anchor="middle"><tspan x="865.352" dy="0"><![CDATA[Great Portland Street]]></tspan></text><text y="558.062" text-anchor="middle"><tspan x="880.341" dy="0"><![CDATA[Green Park]]></tspan></text><text y="687.71" text-anchor="middle"><tspan x="249.881" dy="0"><![CDATA[Hammersmith]]></tspan></text><text y="79.18" text-anchor="middle"><tspan x="604.618" dy="0"><![CDATA[Hampstead]]></tspan></text><text y="281.355" text-anchor="middle"><tspan x=".851" dy="0"><![CDATA[Harlesdon]]></tspan></text><text y="615.607" text-anchor="middle"><tspan x="497.177" dy="0"><![CDATA[High St Kensington]]></tspan></text><text y="181.517" text-anchor="middle"><tspan x="1173.063" dy="0"><![CDATA[Highbury &amp; Islington]]></tspan></text><text y="457.436" text-anchor="middle"><tspan x="1047.409" dy="0"><![CDATA[Holborn]]></tspan></text><text y="556.327" text-anchor="middle"><tspan x="391.816" dy="0"><![CDATA[Holland Park]]></tspan></text><text y="117.242" text-anchor="middle"><tspan x="1098.712" dy="0"><![CDATA[Holloway Rd]]></tspan></text><text y="602.305" text-anchor="middle"><tspan x="790.987" dy="0"><![CDATA[Hyde Park Corner]]></tspan></text><text y="737.837" text-anchor="middle"><tspan x="1158.508" dy="0"><![CDATA[Kennington]]></tspan></text><text y="331.373" text-anchor="middle"><tspan x="254.761" dy="0"><![CDATA[Kensal Green]]></tspan></text><text y="647.32" text-anchor="middle"><tspan x="361.375" dy="0"><![CDATA[Kensington]]></tspan></text><text y="139.598" text-anchor="middle"><tspan x="892.697" dy="0"><![CDATA[Kentish Town]]></tspan></text><text y="172.459" text-anchor="middle"><tspan x="405.809" dy="0"><![CDATA[Kilburn]]></tspan></text><text y="282.704" text-anchor="middle"><tspan x="485.699" dy="0"><![CDATA[Kilburn Park]]></tspan></text><text y="330.313" text-anchor="middle"><tspan x="1019.836" dy="0"><![CDATA[King&apos;s Cross]]></tspan></text><text y="611.269" text-anchor="middle"><tspan x="738.833" dy="0"><![CDATA[Knightsbridge]]></tspan></text><text y="458.111" text-anchor="middle"><tspan x="360.165" dy="0"><![CDATA[Ladbroke Grove]]></tspan></text><text y="635.56" text-anchor="middle"><tspan x="1109.693" dy="0"><![CDATA[Lambeth North]]></tspan></text><text y="510.833" text-anchor="middle"><tspan x="624.839" dy="0"><![CDATA[Lancaster Gate]]></tspan></text><text y="497.05" text-anchor="middle"><tspan x="300.907" dy="0"><![CDATA[Latimer Rd]]></tspan></text><text y="517.483" text-anchor="middle"><tspan x="986.56" dy="0"><![CDATA[Leicester Square]]></tspan></text><text y="456.279" text-anchor="middle"><tspan x="1334.103" dy="0"><![CDATA[Liverpool Street]]></tspan></text><text y="573.677" text-anchor="middle"><tspan x="1293.912" dy="0"><![CDATA[London Bridge]]></tspan></text><text y="506.206" text-anchor="middle"><tspan x="1239.905" dy="0"><![CDATA[Mansion House]]></tspan></text><text y="493.001" text-anchor="middle"><tspan x="756.427" dy="0"><![CDATA[Marble Arch]]></tspan></text><text y="409.245" text-anchor="middle"><tspan x="719.187" dy="0"><![CDATA[Marylebone]]></tspan></text><text y="385.247" text-anchor="middle"><tspan x="1698.945" dy="0"><![CDATA[Mile End]]></tspan></text><text y="518.254" text-anchor="middle"><tspan x="1301.465" dy="0"><![CDATA[Monument]]></tspan></text><text y="450.496" text-anchor="middle"><tspan x="1281.663" dy="0"><![CDATA[Moorgate]]></tspan></text><text y="294.462" text-anchor="middle"><tspan x="904.804" dy="0"><![CDATA[Mornington Cres]]></tspan></text><text y="106.161" text-anchor="middle"><tspan x="61.221" dy="0"><![CDATA[Neasden]]></tspan></text><text y="856.026" text-anchor="middle"><tspan x="1713.903" dy="0"><![CDATA[New Cross]]></tspan></text><text y="859.497" text-anchor="middle"><tspan x="1655.208" dy="0"><![CDATA[New Cross Gate]]></tspan></text><text y="646.356" text-anchor="middle"><tspan x="1994.749" dy="0"><![CDATA[North Greenwich]]></tspan></text><text y="377.826" text-anchor="middle"><tspan x="1294.013" dy="0"><![CDATA[Old Street]]></tspan></text><text y="800.497" text-anchor="middle"><tspan x="1099.777" dy="0"><![CDATA[Oval]]></tspan></text><text y="479.7" text-anchor="middle"><tspan x="883.751" dy="0"><![CDATA[Oxford Circus]]></tspan></text><text y="472.472" text-anchor="middle"><tspan x="624.574" dy="0"><![CDATA[Paddington (N)]]></tspan></text><text y="476.038" text-anchor="middle"><tspan x="626.471" dy="0"><![CDATA[Paddington (S)]]></tspan></text><text y="863.45" text-anchor="middle"><tspan x="430.523" dy="0"><![CDATA[Parsons Green]]></tspan></text><text y="533.869" text-anchor="middle"><tspan x="939.725" dy="0"><![CDATA[Piccadilly Circus]]></tspan></text><text y="729.257" text-anchor="middle"><tspan x="944.892" dy="0"><![CDATA[Pimlico]]></tspan></text><text y="930.743" text-anchor="middle"><tspan x="371.365" dy="0"><![CDATA[Putney Bridge]]></tspan></text><text y="299.28" text-anchor="middle"><tspan x="403.908" dy="0"><![CDATA[Queens Park]]></tspan></text><text y="523.748" text-anchor="middle"><tspan x="533.462" dy="0"><![CDATA[Queensway]]></tspan></text><text y="681.155" text-anchor="middle"><tspan x="164.672" dy="0"><![CDATA[Ravenscourt Park]]></tspan></text><text y="399.8" text-anchor="middle"><tspan x="843.004" dy="0"><![CDATA[Regents Park]]></tspan></text><text y="617.342" text-anchor="middle"><tspan x="1562.071" dy="0"><![CDATA[Rotherhithe]]></tspan></text><text y="438.834" text-anchor="middle"><tspan x="526.639" dy="0"><![CDATA[Royal Oak]]></tspan></text><text y="404.041" text-anchor="middle"><tspan x="1012.714" dy="0"><![CDATA[Russell Square]]></tspan></text><text y="512.375" text-anchor="middle"><tspan x="1525.543" dy="0"><![CDATA[Shadwell]]></tspan></text><text y="580.617" text-anchor="middle"><tspan x="301.636" dy="0"><![CDATA[Shepherd&apos;s Bush]]></tspan></text><text y="570.978" text-anchor="middle"><tspan x="238.026" dy="0"><![CDATA[Shepherd&apos;s Bush]]></tspan></text><text y="404.908" text-anchor="middle"><tspan x="1419.403" dy="0"><![CDATA[Shoreditch]]></tspan></text><text y="699.374" text-anchor="middle"><tspan x="771.134" dy="0"><![CDATA[Sloane Square]]></tspan></text><text y="681.637" text-anchor="middle"><tspan x="639.03" dy="0"><![CDATA[South Kensington]]></tspan></text><text y="1149.706" text-anchor="middle"><tspan x="390.944" dy="0"><![CDATA[Southfields]]></tspan></text><text y="629.68" text-anchor="middle"><tspan x="944.21" dy="0"><![CDATA[St James&apos;s Park]]></tspan></text><text y="289.932" text-anchor="middle"><tspan x="633.959" dy="0"><![CDATA[St John&apos;s Wood]]></tspan></text><text y="331.469" text-anchor="middle"><tspan x="1009.575" dy="0"><![CDATA[St Pancras]]></tspan></text><text y="484.423" text-anchor="middle"><tspan x="1220.231" dy="0"><![CDATA[St Paul&apos;s]]></tspan></text><text y="671.804" text-anchor="middle"><tspan x="93.228" dy="0"><![CDATA[Stamford Brook]]></tspan></text><text y="413.39" text-anchor="middle"><tspan x="1602.719" dy="0"><![CDATA[Stepney Green]]></tspan></text><text y="892.179" text-anchor="middle"><tspan x="1023.685" dy="0"><![CDATA[Stockwell]]></tspan></text><text y="224.015" text-anchor="middle"><tspan x="1943.975" dy="0"><![CDATA[Stratford]]></tspan></text><text y="691.18" text-anchor="middle"><tspan x="1597.169" dy="0"><![CDATA[Surrey Quays]]></tspan></text><text y="206.669" text-anchor="middle"><tspan x="625.685" dy="0"><![CDATA[Swiss Cottage]]></tspan></text><text y="518.351" text-anchor="middle"><tspan x="1096.012" dy="0"><![CDATA[Temple]]></tspan></text><text y="469.773" text-anchor="middle"><tspan x="965.086" dy="0"><![CDATA[Tottenham Court Road]]></tspan></text><text y="527.604" text-anchor="middle"><tspan x="1383.551" dy="0"><![CDATA[Tower Hill]]></tspan></text><text y="78.698" text-anchor="middle"><tspan x="912.047" dy="0"><![CDATA[Tufnell Park]]></tspan></text><text y="673.636" text-anchor="middle"><tspan x="20.856" dy="0"><![CDATA[Turnham Green]]></tspan></text><text y="760.49" text-anchor="middle"><tspan x="1008.955" dy="0"><![CDATA[Vauxhall]]></tspan></text><text y="659.37" text-anchor="middle"><tspan x="860.568" dy="0"><![CDATA[Victoria]]></tspan></text><text y="582.931" text-anchor="middle"><tspan x="1536.465" dy="0"><![CDATA[Wapping]]></tspan></text><text y="391.512" text-anchor="middle"><tspan x="910.349" dy="0"><![CDATA[Warren Street]]></tspan></text><text y="399.029" text-anchor="middle"><tspan x="564.989" dy="0"><![CDATA[Warwick Ave]]></tspan></text><text y="586.883" text-anchor="middle"><tspan x="1087.681" dy="0"><![CDATA[Waterloo]]></tspan></text><text y="749.694" text-anchor="middle"><tspan x="469.885" dy="0"><![CDATA[West Brompton]]></tspan></text><text y="351.708" text-anchor="middle"><tspan x="1999.149" dy="0"><![CDATA[West Ham]]></tspan></text><text y="176.12" text-anchor="middle"><tspan x="510.898" dy="0"><![CDATA[West Hampstead]]></tspan></text><text y="715.568" text-anchor="middle"><tspan x="391.319" dy="0"><![CDATA[West Kensington]]></tspan></text><text y="420.522" text-anchor="middle"><tspan x="430.059" dy="0"><![CDATA[Westbourne Park]]></tspan></text><text y="613.197" text-anchor="middle"><tspan x="1010.812" dy="0"><![CDATA[Westminster]]></tspan></text><text y="506.784" text-anchor="middle"><tspan x="253.085" dy="0"><![CDATA[White City]]></tspan></text><text y="440.473" text-anchor="middle"><tspan x="1496.609" dy="0"><![CDATA[Whitechapel]]></tspan></text><text y="151.837" text-anchor="middle"><tspan x="277.871" dy="0"><![CDATA[Willesden Green]]></tspan></text><text y="314.122" text-anchor="middle"><tspan x="97.85" dy="0"><![CDATA[Willesden Junction]]></tspan></text></g></svg>